<?xml version="1.0" encoding="UTF-8"?>
<svg id="Layer_1" data-name="Layer 1" xmlns="http://www.w3.org/2000/svg" viewBox="-400 -400 2000 1800"
>
  <defs>
    <style>
      .cls-1 {
        fill: #fff;
      }

      .cls-1, .cls-2, .cls-3 {
        stroke-miterlimit: 10;
      }

      .cls-1, .cls-2, .cls-3, .cls-4 {
        stroke: #231f20;
      }

      .cls-1, .cls-3, .cls-4 {
        stroke-width: 9.12px;
      }

      .cls-5 {
        opacity: .1;
      }

      .cls-5, .cls-6 {
        fill: #231f20;
        stroke-width: 0px;
      }

      .cls-2 {
        fill: #58595b;
        stroke-width: 10.25px;
      }

      .cls-3 {
        fill: #caac8d;
      }

      .cls-4 {
        fill: none;
        stroke-linecap: round;
        stroke-linejoin: round;
      }
    </style>
  </defs>
  <g id="BODY">
  <path id="barbell-handle"  class="cls-2" d="m1196.23,168.96c0,10.92-8.85,19.77-19.77,19.77H24.89c-10.92,0-19.77-8.85-19.77-19.77h0c0-10.92,8.85-19.77,19.77-19.77h1151.57c10.92,0,19.77,8.85,19.77,19.77h0Z"/>
  <path id="right-arm"  class="cls-3" d="m827.03,346.8l-1.53-78.91c-.53-27.45-23.21-49.27-50.66-48.74-27.45.53-49.27,23.21-48.74,50.66l1.53,78.91c.07,3.46.49,6.83,1.22,10.08-6.98,3.28-13.3,8.23-18.3,14.78l-47.91,62.72c-16.66,21.82-12.48,53.01,9.33,69.67,21.81,16.66,53.01,12.49,69.67-9.33l47.91-62.72c9.31-12.2,12.11-27.32,8.96-41.2,17.17-8.1,28.9-25.71,28.51-45.92Z"/>
  <path id="left-arm"   class="cls-3" d="m364.52,341.6l1.52-78.91c.53-27.45,23.21-49.27,50.66-48.74,27.45.53,49.27,23.21,48.73,50.66l-1.52,78.91c-.07,3.46-.49,6.83-1.22,10.08,6.98,3.28,13.3,8.23,18.31,14.78l47.91,62.72c16.66,21.82,12.48,53.01-9.33,69.67-21.82,16.66-53.01,12.48-69.67-9.33l-47.91-62.72c-9.31-12.2-12.11-27.32-8.96-41.2-17.17-8.1-28.9-25.71-28.51-45.92Z"/>
  <path id="body" class="cls-3" d="m671.54,369.2h-145.73c-42.44,0-76.85,34.41-76.85,76.85v22.22c0,32.27,19.9,59.88,48.09,71.27l14.27,182.34,187.63-.12,18.5-191.85c18.78-14.01,30.94-36.4,30.94-61.64v-22.22c0-42.44-34.41-76.85-76.85-76.85Z"/>
  
    <path id="left-hand"  class="cls-3" d="m463.95,185.9c0,16.03-12.99,29.02-29.02,29.02h-41.57c-16.03,0-29.02-12.99-29.02-29.02h0c0-16.03,12.99-29.02,29.02-29.02h41.57c16.03,0,29.02,12.99,29.02,29.02h0Z"/>
    <path id="left-finger1" class="cls-3" d="m448.32,130.03c-6.49-.1-11.83,5.08-11.92,11.57l-.66,43.98c-.1,6.49,5.08,11.83,11.57,11.92h0c6.49.1,11.83-5.08,11.92-11.57l.66-43.98c.1-6.49-5.08-11.83-11.57-11.92h0Z"/>
    <path id="left-finger2" class="cls-3" d="m424.16,130.03c-6.49-.1-11.83,5.08-11.92,11.57l-.66,43.98c-.1,6.49,5.08,11.83,11.57,11.92h0c6.49.1,11.83-5.08,11.92-11.57l.66-43.98c.1-6.49-5.08-11.83-11.57-11.92h0Z"/>
    <path id="left-finger3" class="cls-3" d="m400,130.03c-6.49-.1-11.83,5.08-11.92,11.57l-.66,43.98c-.1,6.49,5.08,11.83,11.57,11.92h0c6.49.1,11.83-5.08,11.92-11.57l.66-43.98c.1-6.49-5.08-11.83-11.57-11.92h0Z"/>
    <path id="left-finger4" class="cls-3" d="m376.92,130.03c-6.49-.1-11.83,5.08-11.92,11.57l-.66,43.98c-.1,6.49,5.08,11.83,11.57,11.92h0c6.49.1,11.83-5.08,11.92-11.57l.66-43.98c.1-6.49-5.08-11.83-11.57-11.92h0Z"/>
    <path id="left-finger5" class="cls-3" d="m419.21,192.41l14.94-6.58-14.92-6.41c-5.96-2.56-8.72-9.47-6.16-15.43,2.56-5.96,9.47-8.72,15.43-6.16l37.16,15.97c3.96.5,7.56,2.99,9.29,6.91.51,1.15.81,2.35.93,3.54.32,2.09-.34,4.16-.81,6.38-3.58,16.8-44.55,26.44-44.55,26.44-8.74,2.11-14.71-3.23-17.32-9.17-2.61-5.94.08-12.87,6.02-15.49Z"/>
  <rect id="left-band" class="cls-6" x="358.81" y="207.96" width="115.07" height="46.39"/>
    <path id="right-hand" class="cls-3" d="m727.6,191.1c0,16.03,12.99,29.02,29.02,29.02h41.57c16.03,0,29.02-12.99,29.02-29.02h0c0-16.03-12.99-29.02-29.02-29.02h-41.57c-16.03,0-29.02,12.99-29.02,29.02h0Z"/>
    <path id="right-finger1" class="cls-3" d="m743.24,135.22c6.49-.1,11.83,5.08,11.92,11.57l.66,43.98c.1,6.49-5.08,11.83-11.57,11.92h0c-6.49.1-11.83-5.08-11.92-11.57l-.66-43.98c-.1-6.49,5.08-11.83,11.57-11.92h0Z"/>
    <path id="right-finger2" class="cls-3" d="m767.39,135.22c6.49-.1,11.83,5.08,11.92,11.57l.66,43.98c.1,6.49-5.08,11.83-11.57,11.92h0c-6.49.1-11.83-5.08-11.92-11.57l-.66-43.98c-.1-6.49,5.08-11.83,11.57-11.92h0Z"/>
    <path id="right-finger3" class="cls-3" d="m791.55,135.22c6.49-.1,11.83,5.08,11.92,11.57l.66,43.98c.1,6.49-5.08,11.83-11.57,11.92h0c-6.49.1-11.83-5.08-11.92-11.57l-.66-43.98c-.1-6.49,5.08-11.83,11.57-11.92h0Z"/>
    <path id="right-finger4" class="cls-3" d="m814.63,135.22c6.49-.1,11.83,5.08,11.92,11.57l.66,43.98c.1,6.49-5.08,11.83-11.57,11.92h0c-6.49.1-11.83-5.08-11.92-11.57l-.66-43.98c-.1-6.49,5.08-11.83,11.57-11.92h0Z"/>
    <path id="right-finger5" class="cls-3" d="m772.34,197.61l-14.94-6.58,14.93-6.41c5.96-2.56,8.72-9.47,6.16-15.43-2.56-5.96-9.47-8.72-15.43-6.16l-37.16,15.97c-3.96.5-7.56,2.99-9.29,6.91-.51,1.15-.81,2.35-.93,3.54-.32,2.09.34,4.16.81,6.38,3.58,16.8,44.55,26.45,44.55,26.45,8.74,2.11,14.71-3.24,17.32-9.17,2.61-5.94-.08-12.87-6.02-15.49Z"/>
  
  <rect id="right-band" class="cls-6" x="717.67" y="213.16" width="115.08" height="46.39"/>
  <path id="left-chest" class="cls-3" d="m602.07,596.41c0,17.39-14.09,31.48-31.48,31.48h0c-17.39,0-31.48-14.09-31.48-31.48v-25.54c0-17.38,14.09-31.48,31.48-31.48h0c17.39,0,31.48,14.09,31.48,31.48v25.54Z"/>
  <path id="right-chest" class="cls-3" d="m665.03,596.41c0,17.39-14.09,31.48-31.48,31.48h0c-17.39,0-31.48-14.09-31.48-31.48v-25.54c0-17.38,14.09-31.48,31.48-31.48h0c17.39,0,31.48,14.09,31.48,31.48v25.54Z"/>
  <path id="cloths" class="cls-1" d="m698.94,721.76l-187.63.12-12.01-157.96,30.09-14.73-1.81-72.22h27.11l.9,73.2s10.85,17.17,51.17,16.27c35.59-.8,42.81-16.84,42.81-16.84l-1.5-77.54h28.01v79.62l38.26,10.32-15.41,159.76Z"/>
  <path id="left-ears" class="cls-3" d="m549.27,420.41c0,18.3-14.84,33.14-33.14,33.14s-33.14-14.84-33.14-33.14,14.84-33.14,33.14-33.14,33.14,14.84,33.14,33.14Z"/>
  <circle id="right-ears" class="cls-3" cx="681.22" cy="420.41" r="33.14" transform="translate(156.86 1025.27) rotate(-80.76)"/>
  <path id="head" class="cls-3" d="m676.1,466.8c0,29.95-38.56,60.85-78.1,60.85s-76.74-31.51-76.74-61.45l8.28-93.86c0-29.95,30.65-54.22,68.45-54.22h0c37.81,0,68.45,24.28,68.45,54.22l9.65,94.46Z"/>
  <path id="right-barbell1" class="cls-2" d="m1006.23,301.16c0,17.47,14.16,31.63,31.63,31.63h0c17.47,0,31.63-14.16,31.63-31.63V36.75c0-17.47-14.16-31.63-31.63-31.63h0c-17.47,0-31.63,14.16-31.63,31.63v264.41Z"/>
  <path id="right-barbell2" class="cls-2" d="m1123.71,247.32c0,14.97-12.14,27.11-27.11,27.11h0c-14.97,0-27.11-12.14-27.11-27.11V81.04c0-14.97,12.14-27.11,27.11-27.11h0c14.97,0,27.11,12.14,27.11,27.11v166.29Z"/>
  <path id="left-barbell1" class="cls-2" d="m204.62,301.16c0,17.47-14.16,31.63-31.63,31.63h0c-17.47,0-31.63-14.16-31.63-31.63V36.75c0-17.47,14.16-31.63,31.63-31.63h0c17.47,0,31.63,14.16,31.63,31.63v264.41Z"/>
  <path id="left-barbell2" class="cls-2" d="m87.14,247.32c0,14.97,12.14,27.11,27.11,27.11h0c14.97,0,27.11-12.14,27.11-27.11V81.04c0-14.97-12.14-27.11-27.11-27.11h0c-14.97,0-27.11,12.14-27.11,27.11v166.29Z"/>
  <path id="angry1" class="cls-6" d="m551.2,351.18c.05.29.1.59.15.88.03.16.05.33.08.5.02.13.1.75.03.19s0,.08.02.21c.02.15.04.3.05.46.04.39.08.78.11,1.17.11,1.42.14,2.85.03,4.27-.01.18-.03.36-.05.54-.05.51-.09.06.03-.18-.14.26-.12.72-.18,1.02s-.14.6-.23.9c-.05.15-.09.31-.15.46-.1.28-.4.7.05-.08-.14.24-.24.5-.38.75-.06.11-.13.21-.2.32-.29.48.48-.51.09-.11-.18.19-.37.37-.55.55-.29.3.59-.36.21-.17-.14.07-.28.17-.41.25-.53.31.46-.13.14-.05-.14.04-.28.09-.43.13s-.77.14-.2.05-.03-.01-.18-.01c-.2,0-.4,0-.61-.01-.08,0-.16-.02-.24-.02-.36,0,.72.13.2.03-.49-.1-.96-.21-1.44-.35-1.47-.45-3.27.53-3.61,2.05s.48,3.13,2.05,3.61c1.88.57,4.04.84,5.94.21s3.27-1.81,4.26-3.45c1.74-2.89,1.93-6.61,1.75-9.89-.1-1.93-.36-3.85-.7-5.75-.27-1.51-2.2-2.51-3.61-2.05-1.63.53-2.34,1.99-2.05,3.61h0Z"/>
  <path id="angry2" class="cls-6" d="m559.32,349.81c.26,3-.11,6.02.08,9.03.2,3.25,1.06,7.06,4.29,8.63,2.22,1.08,4.63.97,6.99.43,1.5-.34,2.52-2.15,2.05-3.61-.51-1.57-2.01-2.42-3.61-2.05-.23.05-.46.1-.69.14-.12.02-.76.13-.25.05s-.17,0-.3.01c-.21.01-.42.02-.64,0-.15,0-.3-.02-.44-.03-.47-.01.77.17.16.01-.13-.03-.25-.06-.38-.09s-.72-.27-.17-.04-.21-.21-.36-.25c.23.07.58.52.2.14-.09-.09-.18-.2-.27-.28-.28-.25.41.64.15.19-.07-.12-.15-.23-.21-.34-.06-.1-.11-.21-.16-.31-.3-.56.19.56.06.15-.18-.56-.34-1.11-.44-1.69-.09-.53,0-.18.01.16,0-.14-.03-.28-.05-.42-.04-.36-.06-.73-.08-1.09-.07-1.41-.03-2.82,0-4.23.03-1.5.07-3.01-.06-4.51s-1.26-3.01-2.94-2.94c-1.48.07-3.08,1.3-2.94,2.94h0Z"/>
  <path id="angry3" class="cls-6" d="m546.59,378.48c.24-.05.48-.09.72-.12l-.78.1c.77-.1,1.54-.11,2.3-.01l-.78-.1c.61.09,1.21.24,1.78.48l-.7-.3c.47.21.92.46,1.33.78l-.59-.46c.37.29.7.63,1,1l-.46-.59c.33.43.59.89.8,1.39l-.3-.7c.22.55.37,1.13.45,1.72l-.1-.78c.09.71.08,1.42,0,2.13l.1-.78c-.04.29-.09.58-.15.86-.17.77-.11,1.57.3,2.26.36.61,1.05,1.19,1.75,1.35,1.48.34,3.26-.45,3.61-2.05.56-2.59.41-5.32-.92-7.66-1.22-2.14-3.41-3.73-5.83-4.22-1.72-.35-3.36-.28-5.08.05-.69.13-1.41.76-1.75,1.35-.37.63-.52,1.56-.3,2.26.52,1.61,1.99,2.36,3.61,2.05h0Z"/>
  <path id="angry4" class="cls-6" d="m568.71,372.71c-2.41-.25-4.94.49-6.67,2.22-1.62,1.62-2.37,3.86-2.47,6.11-.06,1.2.12,2.45.44,3.6.41,1.48,2.1,2.54,3.61,2.05s2.49-2.03,2.05-3.61c-.11-.41-.2-.82-.26-1.24l.1.78c-.1-.76-.11-1.52-.01-2.27l-.1.78c.08-.57.22-1.12.44-1.65l-.3.7c.18-.43.41-.83.69-1.2l-.46.59c.25-.32.53-.6.84-.86l-.59.46c.33-.25.69-.46,1.07-.63l-.7.3c.42-.17.86-.29,1.31-.35l-.78.1c.6-.08,1.19-.07,1.79-.01.7.07,1.6-.38,2.08-.86.51-.51.89-1.34.86-2.08s-.28-1.55-.86-2.08c-.61-.56-1.26-.78-2.08-.86h0Z"/>
  <path id="left-ears2" class="cls-6" d="m513.24,409.91c-2.69-1.22-5.41-1.43-8.14-.21-1.99.89-3.65,2.69-4.63,4.61-2.15,4.23-2.06,10.06,1.78,13.34,2.64,2.26,6.12,2.93,9.51,2.6,1.52-.14,3.01-1.25,2.94-2.94-.07-1.47-1.3-3.09-2.94-2.94-.66.06-1.33.1-1.99.08-.3,0-.6-.03-.9-.06-.39-.03-.39-.23.21.03-.15-.07-.38-.06-.54-.1-.5-.1-.98-.26-1.46-.43s.7.34.26.11c-.1-.05-.21-.1-.31-.15-.21-.11-.42-.24-.63-.37-.08-.05-.15-.11-.22-.16-.4-.26.6.52.26.2-.15-.14-.31-.28-.46-.43s-.27-.32-.41-.46c.74.73.18.24,0-.07-.11-.17-.2-.35-.29-.52-.35-.71.22.66.02.06-.14-.41-.27-.82-.35-1.25-.01-.07-.02-.13-.03-.2-.09-.46.09.85.05.38-.02-.2-.04-.4-.05-.61-.02-.45.01-.88.05-1.33.03-.48-.14.84-.05.37.02-.1.03-.2.05-.3.04-.2.08-.4.13-.6.11-.43.28-.84.41-1.27-.32,1.01-.17.4-.05.14.09-.18.18-.36.28-.54s.2-.35.31-.52c.05-.08.11-.17.17-.25.2-.29.47-.34-.16.2.29-.25.52-.6.8-.86s.77-.41-.07.03c.19-.1.37-.26.56-.38.16-.1.34-.18.51-.27.28-.15.43-.01-.35.14.12-.02.24-.09.36-.13.22-.07.44-.12.66-.17.78-.19-.8.05,0,0,.24-.01.48-.01.72,0,.1,0,.21.03.32.03-1-.01-.56-.08-.25-.02.26.05.52.12.77.2.11.04.22.08.34.12.66.23-.58-.26-.13-.06,1.4.63,3.22.45,4.02-1.05.68-1.29.44-3.34-1.05-4.02h0Z"/>
  <path id="right-ears2" class="cls-6" d="m683.12,413.41c.27-.15.54-.29.81-.42.13-.06.27-.11.4-.18.04-.02-.66.25-.37.16.09-.03.18-.07.26-.1.54-.2,1.09-.36,1.66-.47.12-.02.25-.04.37-.06.19-.04-.82.08-.3.04.26-.02.51-.04.76-.04.23,0,.46,0,.68.03.1,0,.24,0,.33.03.11.05-.81-.16-.51-.07.07.02.14.02.21.04.45.1.88.27,1.32.38.17.04-.75-.35-.32-.13.09.05.19.09.28.14.2.1.39.21.58.33.17.11.33.24.5.34-.12-.07-.63-.51-.28-.21.09.08.18.15.27.23.16.15.32.3.46.46.12.13.6.72.22.24s.06.09.15.23c.12.18.23.36.34.55.1.17.18.35.27.53.21.42-.1-.21-.14-.34.04.11.09.22.13.32.15.4.26.82.35,1.24.02.1.03.19.05.29.09.48-.05-.58-.05-.39,0,.21.04.42.04.64,0,.2,0,.39,0,.59,0,.1-.01.19-.02.29-.03.53.08-.45.05-.34-.1.42-.16.83-.3,1.23-.03.09-.08.18-.1.28-.04.17.36-.76.14-.34-.1.19-.19.39-.3.58-.1.18-.23.34-.33.51-.22.35.49-.58.21-.27-.08.09-.16.19-.24.28-.18.2-.37.39-.57.56-.1.09-.5.4-.05.05s.04-.04-.07.04c-.23.16-.46.3-.7.43-.13.07-.25.13-.38.2-.06.03-.11.05-.17.08-.34.18.32-.13.35-.14-.64.2-1.25.44-1.91.59-.17.04-.34.07-.51.1-.13.02-.76.12-.22.04s-.12,0-.25.02c-.22.02-.45.03-.67.05-1.53.08-3.01,1.29-2.94,2.94.07,1.52,1.29,3.03,2.94,2.94,3.2-.18,6.29-1.03,8.74-3.17,1.96-1.72,3-4.22,3.18-6.79.34-4.9-3.07-9.67-7.74-11.06-3.24-.97-6.68-.14-9.57,1.46-1.34.75-1.9,2.7-1.05,4.02s2.58,1.85,4.02,1.05h0Z"/>
</g>
  <g>
    <ellipse id="shadow" class="cls-5" cx="616.54" cy="1039.19" rx="386.09" ry="80.25"/>
    <path id="right-leg" class="cls-3" d="m674.72,767.67c10.32-23.27,37.54-33.77,60.81-23.46l87.58,38.82c22,9.75,32.58,34.62,24.95,56.98,5.24,7.52,8.3,16.67,8.25,26.53l-.47,95.79c-.13,25.46-20.86,45.99-46.32,45.86-25.45-.13-45.99-20.86-45.86-46.32l.48-95.79c.01-2.74.28-5.42.75-8.03l-66.7-29.57c-23.27-10.32-33.77-37.54-23.46-60.81Z"/>
    <path id="right-shoes 1" class="cls-6" d="m752.65,1021.03c0,24.21,111.24,24.21,111.24,0s-24.9-43.83-55.62-43.83-55.62,19.62-55.62,43.83Z"/>
    <path id="right-shoes 2" class="cls-1" d="m752.65,1032.78c0,24.21,111.24,24.21,111.24,0s-24.9-43.83-55.62-43.83-55.62,19.62-55.62,43.83Z"/>
    <path id="left-leg" class="cls-3" d="m565.58,773.02c-10.32-23.27-37.54-33.77-60.81-23.46l-87.58,38.82c-22,9.75-32.58,34.62-24.95,56.98-5.24,7.52-8.3,16.67-8.25,26.53l.48,95.79c.13,25.46,20.86,45.99,46.32,45.86,25.46-.13,45.99-20.87,45.86-46.32l-.48-95.79c-.01-2.74-.28-5.42-.75-8.03l66.7-29.57c23.27-10.32,33.77-37.54,23.46-60.81Z"/>
    <polygon id="pants" class="cls-6" points="743.74 864.67 614.34 825.81 489.63 869.19 441.03 755.55 511.32 721.88 615.24 721.88 698.94 721.88 792.05 753.77 743.74 864.67"/>
    <path id="left-shoes 1" class="cls-6" d="m487.66,1026.38c0,24.21-111.24,24.21-111.24,0s24.9-43.83,55.62-43.83,55.62,19.62,55.62,43.83Z"/>
    <path id="left-shoes 2" class="cls-1" d="m487.66,1038.13c0,24.21-111.24,24.21-111.24,0s24.9-43.83,55.62-43.83,55.62,19.62,55.62,43.83Z"/>
    <path id="left-leg-muscle" class="cls-4" d="m432.04,811.32c20.3,36.92,20.3,81.66,0,118.59"/>
    <path id="right-leg-muscle" class="cls-4" d="m817.06,813.23c-20.3,36.92-20.3,81.66,0,118.59"/>
  </g>
  
  
  

  




</svg>